<?xml version="1.0" standalone="no"?>
<!DOCTYPE svg PUBLIC "-//W3C//DTD SVG 20010904//EN"
 "http://www.w3.org/TR/2001/REC-SVG-20010904/DTD/svg10.dtd">
<svg version="1.0" xmlns="http://www.w3.org/2000/svg"
 width="1190.000000pt" height="1280.000000pt" viewBox="0 0 1190.000000 1280.000000"
 preserveAspectRatio="xMidYMid meet">
<metadata>
Created by potrace 1.15, written by Peter Selinger 2001-2017
</metadata>
<g transform="translate(0.000000,1280.000000) scale(0.100000,-0.100000)"
fill="#fff" stroke="none">
<path d="M4685 12656 c-16 -7 -40 -24 -52 -38 -16 -16 -151 -399 -424 -1194
-221 -643 -404 -1172 -408 -1175 -3 -4 -523 92 -1156 212 -632 120 -1171 218
-1196 219 -92 0 -57 55 -715 -1135 -568 -1027 -603 -1093 -603 -1140 -1 -32 5
-59 16 -75 10 -14 229 -286 488 -605 258 -319 601 -742 760 -938 160 -197 291
-362 293 -366 2 -5 -183 -237 -409 -517 -227 -280 -573 -707 -769 -949 -196
-242 -362 -450 -368 -462 -18 -33 -14 -99 8 -143 25 -49 1162 -2108 1179
-2135 21 -32 60 -57 99 -62 22 -3 135 14 277 41 272 52 1046 198 1640 310 220
42 412 79 427 82 24 5 30 1 39 -23 6 -15 186 -539 401 -1163 214 -624 397
-1148 406 -1165 10 -16 33 -38 52 -50 35 -20 46 -20 1260 -20 1214 0 1225 0
1260 20 19 12 42 34 52 51 9 16 146 405 304 864 420 1225 491 1432 503 1463 9
24 15 28 39 23 27 -6 290 -56 1137 -216 237 -45 597 -113 800 -152 228 -43
384 -68 407 -65 39 5 78 30 98 61 20 32 1154 2085 1184 2143 18 37 21 105 5
135 -6 11 -185 235 -397 497 -212 262 -549 676 -747 921 -447 552 -412 505
-393 527 43 49 1521 1878 1534 1899 12 17 15 39 12 77 -5 45 -45 123 -321 622
-173 314 -443 802 -600 1085 -309 560 -309 560 -393 560 -23 0 -553 -97 -1178
-215 -625 -118 -1147 -215 -1160 -215 -21 0 -29 17 -94 208 -491 1442 -734
2138 -755 2161 -49 53 7 51 -1299 51 -989 -1 -1219 -3 -1243 -14z m2339 -318
c8 -18 190 -548 406 -1178 216 -630 399 -1155 407 -1168 22 -35 73 -62 119
-62 23 0 565 99 1205 220 933 177 1165 218 1175 208 6 -7 205 -364 442 -793
236 -429 474 -859 527 -955 54 -96 98 -180 98 -186 0 -8 -399 -505 -1532
-1902 -47 -59 -54 -130 -19 -182 19 -28 1495 -1854 1544 -1911 12 -13 -59
-147 -522 -985 -294 -533 -538 -972 -542 -976 -4 -3 -479 83 -1057 193 -1454
276 -1320 252 -1360 239 -74 -25 -64 1 -484 -1225 -217 -633 -400 -1165 -407
-1182 l-13 -33 -1081 0 -1080 0 -10 23 c-6 12 -190 546 -409 1185 -327 953
-404 1169 -427 1193 -59 61 -9 68 -1029 -126 -511 -97 -1045 -198 -1185 -224
-140 -27 -258 -46 -262 -42 -4 3 -97 168 -206 366 -513 926 -832 1505 -850
1541 l-20 39 427 526 c234 290 577 712 761 939 184 227 347 431 363 453 33 49
36 107 7 154 -10 18 -336 423 -722 900 -387 477 -734 906 -771 951 l-67 84 24
41 c13 23 107 193 209 377 101 184 316 574 477 865 161 292 308 558 327 592
19 35 38 65 43 68 4 3 531 -94 1170 -215 640 -121 1181 -220 1204 -220 46 0
97 27 119 62 8 13 54 138 102 278 48 140 213 622 367 1070 154 448 296 863
316 922 l37 108 1083 0 1083 0 13 -32z"/>
<path d="M4946 12222 c-2 -4 -112 -322 -244 -707 -132 -385 -322 -938 -422
-1230 -100 -291 -185 -533 -188 -536 -4 -4 -394 67 -867 157 -1524 289 -1617
306 -1625 297 -4 -4 -226 -404 -493 -888 -344 -622 -483 -883 -476 -891 276
-332 1619 -2002 1617 -2011 -2 -6 -170 -218 -374 -470 -1335 -1646 -1255
-1545 -1241 -1567 7 -12 228 -411 491 -888 463 -839 480 -867 505 -862 14 2
573 108 1241 234 668 126 1218 226 1222 222 4 -4 44 -113 88 -242 44 -129 235
-685 424 -1235 l343 -1000 983 0 983 0 38 110 c481 1401 730 2125 765 2229 24
72 47 133 52 138 4 4 160 -22 347 -57 187 -35 745 -141 1239 -234 495 -94 901
-169 903 -167 2 2 126 226 276 497 150 272 359 649 464 839 239 434 237 429
226 450 -4 9 -368 461 -808 1004 -440 543 -801 992 -803 999 -2 11 317 408
1310 1632 224 275 308 386 305 400 -3 15 -906 1655 -963 1749 -11 18 -38 14
-550 -84 -297 -56 -609 -115 -694 -131 -85 -16 -400 -76 -700 -133 -300 -57
-548 -101 -552 -97 -6 5 -233 664 -777 2251 l-77 225 -981 3 c-540 1 -984 -1
-987 -6z m1155 -3893 c330 -33 626 -148 899 -350 109 -79 298 -269 382 -382
435 -586 507 -1384 187 -2047 -406 -841 -1339 -1250 -2199 -964 -870 290
-1409 1221 -1250 2159 53 314 176 607 358 852 85 113 294 322 399 396 369 262
798 380 1224 336z"/>
<path d="M5780 8189 c-372 -35 -716 -193 -992 -457 -496 -474 -680 -1214 -466
-1880 150 -468 474 -846 903 -1052 132 -64 227 -96 385 -131 92 -21 131 -24
320 -24 205 0 242 3 380 36 102 25 212 65 325 119 421 202 743 572 895 1029
128 385 128 788 -1 1175 -150 450 -466 818 -879 1023 -184 91 -368 142 -585
163 -122 11 -160 11 -285 -1z m415 -313 c274 -61 492 -181 695 -385 220 -220
341 -448 412 -773 19 -88 22 -133 22 -303 0 -168 -4 -216 -22 -302 -131 -606
-560 -1046 -1132 -1160 -117 -24 -364 -23 -483 0 -853 170 -1356 1076 -1081
1950 125 396 443 745 815 896 199 80 322 102 544 96 92 -2 190 -10 230 -19z"/>
</g>
</svg>
